<?xml version="1.0" standalone="no"?><!DOCTYPE svg PUBLIC "-//W3C//DTD SVG 1.1//EN" "http://www.w3.org/Graphics/SVG/1.1/DTD/svg11.dtd"><svg t="1577719509837" class="icon" viewBox="0 0 1024 1024" version="1.1" xmlns="http://www.w3.org/2000/svg" p-id="6933" width="16" height="16" xmlns:xlink="http://www.w3.org/1999/xlink"><defs><style type="text/css"></style></defs><path d="M85.411804 719.155324c-18.598149 0-33.063644-5.506593-43.39528-16.533026-11.025228-11.705575-16.530618-26.169866-16.530618-43.39528 0-17.208556 5.505389-31.333275 16.530618-42.360912 10.33284-11.010779 24.797131-16.531822 43.39528-16.531822l157.048093 0c0.677938-13.769494 1.033164-27.203029 1.033164-40.294585l0-80.590374-116.753508 0c-18.596945 0-33.06244-5.505389-43.39528-16.531822-11.026433-11.704371-16.531822-26.168661-16.531822-43.394076 0-17.20976 5.504185-31.334479 16.531822-42.362116 10.33284-11.009574 24.797131-16.531822 43.39528-16.531822l116.753508 0 0-116.753508L106.07628 243.875982c-18.596945 0-33.06244-5.505389-43.39528-16.531822-11.025228-11.704371-16.530618-26.168661-16.530618-43.394076 0-17.20976 5.505389-31.335684 16.530618-42.362116 10.33284-11.010779 24.798335-16.531822 43.39528-16.531822l137.417985 0L243.494265 68.228535c0.677938-20.664476 6.538553-37.196298 17.564985-49.594261 10.33284-11.704371 24.797131-17.904557 43.39528-18.598149 17.903353 0.693592 32.368847 6.198982 43.39528 16.531822 12.399167 13.09276 18.598149 30.318174 18.598149 51.660589l0 56.826407 132.250962 0c17.903353 0 32.03048 5.165818 42.362116 15.498658 11.009574 11.720025 16.531822 26.18552 16.531822 43.39528 0 17.225414-5.523452 31.351338-16.531822 42.362116-11.025228 11.720025-25.152356 17.563781-42.362116 17.563781L366.446755 243.874777l0 116.753508 115.719141 0c17.904557 0 32.029276 5.165818 42.362116 15.498658 11.011983 11.720025 16.531822 26.18552 16.531822 43.39528 0 17.225414-5.519839 31.351338-16.531822 42.362116-11.025228 11.720025-25.15356 17.563781-42.362116 17.563781l-115.719141 0 0 80.590374c-0.694797 13.787556-1.033164 27.218683-1.033164 40.294585l149.815948 0c17.904557 0 32.03048 5.167022 42.36332 15.499862 11.009574 11.718821 16.531822 26.184315 16.531822 43.392872 0 17.225414-5.522247 31.352542-16.531822 42.36332-11.027637 11.720025-25.15356 17.56619-42.36332 17.56619L356.113915 719.155324c-1.387185 2.761124-2.065123 6.198982-2.065123 10.331636-26.864662 103.321177-67.515676 177.018977-121.920531 221.106645-33.757236 24.104743-71.291901 41.668524-112.620854 52.696161-19.291741 8.264105-36.517156 9.976411-51.660589 5.16341-15.159087-4.130246-26.863458-14.464291-35.128767-30.994908-17.226618-37.891095-5.860615-66.124879 34.095603-84.725437 84.724232-26.86105 138.451148-84.72062 161.181952-173.576303L85.411804 719.156528zM709.473931 956.792587c0 20.664476-6.198982 37.535869-18.598149 50.627425-11.720025 10.334044-26.18552 15.837025-43.39528 16.531822-18.595741-1.385981-33.061235-7.587371-43.394076-18.595741-11.721229-13.09276-17.564985-29.28501-17.564985-48.562302L586.521441 129.187596c-0.693592-27.541396 6.538553-48.899465 21.69764-64.058552 16.531822-15.143433 38.228258-22.729599 65.095328-22.729599l207.674314 0c31.674051 0.693592 56.826407 9.653698 75.42576 26.863458 14.465495 13.787556 22.730804 29.28501 24.797131 46.494771 2.067531 17.919007 0 35.483992-6.198982 52.693752l-73.358229 203.544068c-10.331636 31.690909-9.298472 57.85957 3.099491 78.524047 81.963109 105.387505 111.58769 210.776213 88.856887 316.163718-12.399167 58.555571-41.328953 96.087828-86.789355 112.622058-88.178948 26.167457-153.949807 22.729599-197.345086-10.334044L709.476339 956.792587zM757.003069 161.216872c-16.533026 0-28.253051 4.48788-35.131175 13.431127-8.958901 9.654902-13.09276 21.019702-12.397963 34.095603l0 558.969207c11.704371-16.530618 34.095603-21.340006 67.158043-14.464291 44.766811 13.093964 73.358229 14.464291 85.7586 4.133859 8.942043-7.572921 14.803862-16.531822 17.562577-26.865866 0-1.370327 0.338367-2.066327 1.033164-2.066327 17.903353-70.258738-14.821924-156.013725-98.155359-257.26978-6.198982-6.200186-10.686861-13.432331-13.432331-21.69764-6.198982-18.596945-2.066327-46.834342 12.399167-84.723028l64.058552-171.513588c4.133859-23.408742-4.48788-34.095603-25.82909-32.03048L757.003069 161.215668z" p-id="6934" fill="#14c4ea"></path></svg>